PathFileType	4	(X/Y/Z)	H:\MAC\Pilotos\MDrajagopal3\static1.trc																																																																																																																																																																																																																																								
DataRate	CameraRate	NumFrames	NumMarkers	Units	OrigDataRate	OrigDataStartFrame	OrigNumFrames																																																																																																																																																																																																																																				
150	150	5	78	mm	150	1126	1500																																																																																																																																																																																																																																				
Frame#	Time	RACR			LACR			C7			CLAV			RASH			RPSH			LASH			LPSH			RUA1			RUA2			RUA3			RLEL			RMEL			RFAsuperior			RFAradius			RFAulna			LUA1			LUA2			LUA3			LLEL			LMEL			LFAsuperior			LFAradius			LFAulna			RASI			LASI			RPSI			LPSI			RTH1			RTH2			RTH3			RLFC			RMFC			RTB1			RTB2			RTB3			RLMAL			RMMAL			RCAL			RTOE			RMT5			LTH1			LTH2			LTH3			LLFC			LMFC			LTB1			LTB2			LTB3			LLMAL			LMMAL			LCAL			LTOE			LMT5			RSJC			LSJC			RHJC			LHJC			RKJC			LKJC			RAJC			LAJC			REJC			LEJC			Mid_ASIS			Mid_PSIS			RASHv			RPSHv			LPSHv			RLFCv			RMFCv			RLMALv			RMMALv			LLFCv			LMFCv			LLMALv			LMMALv			LASHv		
		X1	Y1	Z1	X2	Y2	Z2	X3	Y3	Z3	X4	Y4	Z4	X5	Y5	Z5	X6	Y6	Z6	X7	Y7	Z7	X8	Y8	Z8	X9	Y9	Z9	X10	Y10	Z10	X11	Y11	Z11	X12	Y12	Z12	X13	Y13	Z13	X14	Y14	Z14	X15	Y15	Z15	X16	Y16	Z16	X17	Y17	Z17	X18	Y18	Z18	X19	Y19	Z19	X20	Y20	Z20	X21	Y21	Z21	X22	Y22	Z22	X23	Y23	Z23	X24	Y24	Z24	X25	Y25	Z25	X26	Y26	Z26	X27	Y27	Z27	X28	Y28	Z28	X29	Y29	Z29	X30	Y30	Z30	X31	Y31	Z31	X32	Y32	Z32	X33	Y33	Z33	X34	Y34	Z34	X35	Y35	Z35	X36	Y36	Z36	X37	Y37	Z37	X38	Y38	Z38	X39	Y39	Z39	X40	Y40	Z40	X41	Y41	Z41	X42	Y42	Z42	X43	Y43	Z43	X44	Y44	Z44	X45	Y45	Z45	X46	Y46	Z46	X47	Y47	Z47	X48	Y48	Z48	X49	Y49	Z49	X50	Y50	Z50	X51	Y51	Z51	X52	Y52	Z52	X53	Y53	Z53	X54	Y54	Z54	X55	Y55	Z55	X56	Y56	Z56	X57	Y57	Z57	X58	Y58	Z58	X59	Y59	Z59	X60	Y60	Z60	X61	Y61	Z61	X62	Y62	Z62	X63	Y63	Z63	X64	Y64	Z64	X65	Y65	Z65	X66	Y66	Z66	X67	Y67	Z67	X68	Y68	Z68	X69	Y69	Z69	X70	Y70	Z70	X71	Y71	Z71	X72	Y72	Z72	X73	Y73	Z73	X74	Y74	Z74	X75	Y75	Z75	X76	Y76	Z76	X77	Y77	Z77	X78	Y78	Z78
																																																																																																																																																																																																																																											
1126	7.5	696.55273	1392.19092	1383.72827	705.8479	1393.34656	1046.88525	648.47443	1411.65747	1205.44641	797.32721	1370.6936	1257.82764	767.01123	1365.29614	1403.21436	660.11462	1357.1012	1395.2019	779.2699	1376.74841	1040.45251	676.54517	1354.24109	1028.05859	701.97583	1273.9812	1458.28381	743.94189	1205.98706	1477.69312	670.91357	1163.42798	1452.35999	688.12335	1119.14246	1492.28442	745.50525	1091.74084	1431.11731	761.45239	1042.81287	1575.75513	783.24548	968.38879	1627.91223	746.71716	916.1131	1586.76465	707.41443	1294.17468	975.8764	750.20807	1209.32031	948.06989	689.53625	1166.83899	987.68225	719.83337	1130.8324	922.99615	751.13336	1090.79846	999.39911	782.08405	1024.01453	847.02313	828.78723	962.86554	822.409	779.9809	913.15979	843.91211	831.61121	903.46899	1337.9541	835.08557	898.46014	1111.42188	656.72333	927.15778	1262.22986	653.96942	926.19574	1179.88269	736.78009	798.35828	1390.0354	692.52863	639.86188	1371.95227	759.08331	610.09851	1400.33398	753.4613	469.75162	1392.26599	759.59277	449.8989	1264.06555	786.0257	342.69302	1355.13953	704.20959	326.95279	1426.04065	738.96613	200.0145	1405.4187	684.95062	82.70303	1407.57617	710.13855	86.79037	1319.10938	636.27936	36.03654	1372.1145	845.54877	36.91877	1377.78625	806.9798	33.42176	1424.99255	750.85425	805.91815	1048.92139	703.06232	657.17017	1060.72314	754.12207	580.46814	1045.97937	757.63324	467.35641	1053.95081	743.45935	450.39792	1179.31628	783.90631	352.97809	1095.96716	692.52264	312.33838	1020.16785	746.76984	183.13649	1058.99902	692.78876	77.21783	1044.44641	712.30212	87.09296	1132.90698	643.63538	45.9422	1075.22485	845.01166	36.91478	1079.21094	817.54169	29.73625	1031.23621	713.56293	1361.19861	1399.20813	727.90753	1365.49475	1034.25549	738.831	839.629	1321.966	742.816	839.424	1117.904	756.52704	459.82526	1328.16577	750.54633	458.87717	1116.63354	697.54456	84.7467	1363.34277	702.54547	82.1554	1088.67676	716.81433	1105.44165	1461.70081	735.4834	1110.81543	961.19763	833.34839	900.96454	1224.68799	655.34637	926.67676	1221.05627	806.25897	1312.58411	1441.83203	698.29865	1318.01892	1415.88782	740.48694	1395.3623	993.1131	726.15814	501.13507	1414.85962	784.3894	460.14221	1298.31116	703.36212	66.90823	1446.92004	729.15118	62.0105	1359.09326	774.47559	515.18573	1013.00641	783.94983	485.0751	1142.3125	711.54419	59.93812	1032.02185	748.41925	73.05515	1115.2594	825.58112	1373.24341	942.13123
1127	7.507	696.55267	1392.18359	1383.73621	705.8476	1393.34399	1046.89661	648.46576	1411.66052	1205.45496	797.34143	1370.69421	1257.83154	766.9964	1365.28601	1403.23596	660.1095	1357.0918	1395.19971	779.28638	1376.75598	1040.47351	676.55371	1354.24146	1028.07178	701.95868	1273.97058	1458.29297	743.91956	1205.97144	1477.69812	670.90521	1163.41541	1452.34753	688.10876	1119.13403	1492.28174	745.47473	1091.745	1431.1123	761.42822	1042.79077	1575.74353	783.21539	968.36121	1627.9115	746.69635	916.09045	1586.74841	707.41522	1294.18201	975.89191	750.21283	1209.32556	948.08002	689.53723	1166.84045	987.68982	719.83514	1130.8313	923.00525	751.13275	1090.80396	999.40833	782.11279	1024.01941	847.02985	828.80859	962.8725	822.40942	780.26721	913.09583	843.86182	831.62128	903.46667	1337.94348	835.10101	898.47113	1111.40869	656.73212	927.15417	1262.22559	653.98627	926.18652	1179.87769	736.79169	798.36084	1390.03064	692.54956	639.87061	1371.93872	759.10217	610.10144	1400.32886	753.47894	469.74948	1392.26111	759.60248	449.89648	1264.052	786.03009	342.69006	1355.12378	704.20929	326.95944	1426.03943	738.96893	200.01761	1405.41968	684.9541	82.70883	1407.57568	710.12885	86.79986	1319.11401	636.28186	36.04287	1372.11108	845.55615	36.91972	1377.7843	806.97388	33.42961	1424.98901	750.86169	805.92059	1048.91162	703.07483	657.17242	1060.71436	754.12616	580.46948	1045.97229	757.63434	467.36172	1053.95081	743.45514	450.405	1179.31604	783.8371	352.76782	1095.37122	692.40985	312.65488	1019.53961	746.76807	183.14432	1058.98914	692.79071	77.23156	1044.43506	712.2915	87.09979	1132.90894	643.63074	45.95508	1075.24878	844.99792	36.91724	1079.21277	817.552	29.72749	1031.2395	713.55298	1361.18896	1399.2179	727.92004	1365.49866	1034.27258	738.848	839.623	1321.954	742.833	839.428	1117.892	756.54071	459.823	1328.15662	750.54474	458.88336	1116.63342	697.5415	84.75435	1363.34485	702.54108	82.16567	1088.672	716.79175	1105.43945	1461.69702	735.48395	1110.81763	961.20679	833.36115	900.96893	1224.67615	655.35919	926.67035	1221.05164	806.24213	1312.58325	1441.86597	698.29065	1318.01611	1415.90417	740.48608	1395.3689	993.13599	726.17572	501.13669	1414.84644	784.42371	460.14847	1298.30457	703.35968	66.91879	1446.93872	729.14276	62.0106	1359.11072	774.49084	515.18884	1012.99615	783.96887	485.07852	1142.30212	710.09216	60.1202	1031.20923	746.95557	73.01307	1114.48694	825.58209	1373.25415	942.15533
1128	7.513	696.54669	1392.17322	1383.74829	705.85852	1393.34766	1046.90955	648.4718	1411.65686	1205.47302	797.32349	1370.69238	1257.85742	767.00519	1365.27515	1403.25061	660.09949	1357.08728	1395.21143	779.27527	1376.74902	1040.4856	676.54663	1354.2478	1028.08374	701.95374	1273.95227	1458.29736	743.91522	1205.96094	1477.70361	670.89844	1163.40076	1452.34229	688.09589	1119.12329	1492.27649	745.48615	1091.72925	1431.11609	761.40509	1042.76746	1575.73914	783.19751	968.34485	1627.90698	746.66095	916.06525	1586.73694	707.41821	1294.18359	975.91388	750.21564	1209.32556	948.09314	689.53577	1166.84302	987.70825	719.84589	1130.82813	923.02002	751.14441	1090.8031	999.41382	782.13269	1024.02661	847.03906	828.83588	962.8844	822.4223	780.30762	913.09088	843.86957	831.63818	903.47192	1337.93542	835.10333	898.46985	1111.41016	656.72864	927.15497	1262.22229	653.99731	926.18927	1179.87231	736.80908	798.36475	1390.02686	692.56329	639.86542	1371.94189	759.1181	610.10315	1400.32361	753.48669	469.75235	1392.25928	759.60712	449.90787	1264.05688	786.03479	342.68332	1355.1228	704.21088	326.96301	1426.03931	738.98053	200.02231	1405.42346	684.95428	82.71124	1407.57483	710.15143	86.80145	1319.10889	636.28448	36.04649	1372.10767	845.55499	36.91501	1377.78381	806.97241	33.43278	1424.98206	750.87189	805.91833	1048.9071	703.0769	657.17236	1060.70203	754.13306	580.47626	1045.96643	757.63556	467.35727	1053.93835	743.48291	450.41351	1179.30298	783.85089	352.77444	1095.3656	692.41638	312.64774	1019.54388	746.77759	183.13947	1058.99731	692.79242	77.21788	1044.44214	712.30627	87.09499	1132.90308	643.63348	45.94641	1075.24036	845.00269	36.91681	1079.21606	817.54175	29.74329	1031.23718	713.55231	1361.18115	1399.23096	727.91095	1365.49841	1034.28467	738.857	839.627	1321.952	742.838	839.427	1117.89	756.54688	459.83011	1328.15808	750.5592	458.88538	1116.62073	697.55286	84.75635	1363.34192	702.54932	82.15643	1088.67261	716.79102	1105.42627	1461.69629	735.49518	1110.81555	961.21692	833.37079	900.97089	1224.67273	655.36298	926.67212	1221.04736	806.23987	1312.56299	1441.88293	698.28613	1317.99829	1415.90918	740.4903	1395.36938	993.16217	726.198	501.14093	1414.84863	784.43182	460.15121	1298.30017	703.35443	66.925	1446.96777	729.13934	62.00594	1359.14087	774.49438	515.18567	1012.99493	783.95068	485.07471	1142.30237	710.1145	60.11636	1031.24158	746.98438	73.02	1114.51477	825.58319	1373.25757	942.17505
1129	7.52	696.54669	1392.15784	1383.76404	705.86273	1393.34692	1046.92395	648.47571	1411.65735	1205.48645	797.32281	1370.69214	1257.86377	766.9906	1365.25842	1403.25806	660.09851	1357.07825	1395.22192	779.28473	1376.75769	1040.50525	676.56042	1354.2478	1028.08997	701.93982	1273.93506	1458.29883	743.89465	1205.94177	1477.71155	670.87927	1163.38281	1452.32776	688.07983	1119.09546	1492.25952	745.47107	1091.72192	1431.10742	761.38885	1042.74231	1575.73596	783.1651	968.31036	1627.90222	746.65424	916.04108	1586.72766	707.41187	1294.19104	975.92297	750.21234	1209.32104	948.10016	689.5351	1166.83765	987.71497	719.85028	1130.8197	923.03436	751.15643	1090.8092	999.42487	782.15234	1024.03259	847.04797	828.86249	962.89337	822.43335	780.33386	913.10834	843.87708	831.64569	903.4624	1337.92456	835.12268	898.46472	1111.40015	656.74597	927.14917	1262.22058	654.01453	926.18829	1179.85938	736.82288	798.36517	1390.0238	692.57037	639.8598	1371.93921	759.1203	610.10211	1400.32202	753.48444	469.73706	1392.25281	759.6228	449.91611	1264.05151	786.04144	342.68451	1355.11719	704.22437	326.96063	1426.03784	738.98566	200.02014	1405.41589	684.96082	82.70931	1407.57312	710.13477	86.79328	1319.10669	636.29053	36.04944	1372.10754	845.55975	36.92074	1377.78345	806.97443	33.4252	1424.99207	750.88977	805.91693	1048.89966	703.08636	657.17456	1060.6925	754.13379	580.47058	1045.96069	757.64697	467.35703	1053.93713	743.46259	450.40353	1179.30505	783.84863	352.77078	1095.36694	692.42242	312.64676	1019.54321	746.77405	183.13802	1058.99609	692.78809	77.23586	1044.44104	712.30298	87.1032	1132.91809	643.64038	45.95374	1075.23669	844.96552	36.95276	1079.20227	817.55774	29.74029	1031.23828	713.54456	1361.16833	1399.23999	727.92261	1365.50281	1034.29761	738.869	839.619	1321.941	742.853	839.425	1117.879	756.55359	459.8266	1328.15222	750.55475	458.88028	1116.62109	697.54779	84.7513	1363.33984	702.54553	82.16953	1088.67957	716.77545	1105.40869	1461.68347	735.50336	1110.81445	961.22961	833.38422	900.96356	1224.66235	655.38025	926.66876	1221.04004	806.23218	1312.54126	1441.9137	698.284	1317.98376	1415.91235	740.48639	1395.37646	993.16864	726.20123	501.14209	1414.84985	784.43713	460.14865	1298.30383	703.36578	66.921	1446.95081	729.1438	62.00739	1359.12158	774.49786	515.18292	1012.98889	783.94659	485.07159	1142.29675	710.11237	60.11338	1031.23962	746.97729	73.01691	1114.51501	825.57813	1373.26172	942.18097
1130	7.527	696.54095	1392.14587	1383.77148	705.8587	1393.35498	1046.93457	648.4751	1411.65808	1205.49487	797.31152	1370.68481	1257.88257	766.99255	1365.24585	1403.28174	660.09698	1357.05945	1395.23438	779.27966	1376.76062	1040.52332	676.5531	1354.26086	1028.09534	701.93378	1273.92273	1458.31091	743.87805	1205.92065	1477.71899	670.87195	1163.35498	1452.3158	688.06335	1119.07043	1492.2572	745.45624	1091.70313	1431.11023	761.35785	1042.71753	1575.74194	783.14355	968.28461	1627.8949	746.62531	916.01392	1586.71509	707.42072	1294.18762	975.93652	750.21466	1209.33069	948.10846	689.54968	1166.83801	987.72632	719.85962	1130.82251	923.05219	751.16425	1090.81006	999.43823	782.18066	1024.04199	847.07672	828.88904	962.90552	822.44928	780.36176	913.10242	843.88647	831.65869	903.46344	1337.91992	835.12512	898.46271	1111.3927	656.75201	927.14301	1262.21692	654.02161	926.1886	1179.85901	736.83167	798.36188	1390.01733	692.57678	639.86169	1371.94019	759.12952	610.10742	1400.32568	753.49091	469.74899	1392.25098	759.63385	449.90094	1264.04358	786.04242	342.68933	1355.12378	704.22986	326.95993	1426.03259	738.98871	200.01894	1405.41211	684.96484	82.71214	1407.57483	710.15088	86.78834	1319.10999	636.28711	36.04495	1372.11206	845.5564	36.91838	1377.78345	806.97015	33.4319	1424.98169	750.89551	805.91974	1048.88354	703.09869	657.17468	1060.69202	754.14453	580.46313	1045.95654	757.633	467.3591	1053.92749	743.44922	450.4129	1179.31604	783.84247	352.76978	1095.36194	692.41479	312.65286	1019.53876	746.78479	183.36128	1058.97253	692.78796	77.21862	1044.44739	712.30145	87.10123	1132.91003	643.64038	45.94998	1075.23853	845.00531	36.91207	1079.22827	817.54535	29.73664	1031.24158	713.54474	1361.15259	1399.25806	727.91638	1365.51074	1034.30933	738.88	839.618	1321.937	742.858	839.423	1117.876	756.56238	459.82495	1328.14722	750.54114	458.88602	1116.6217	697.55786	84.75024	1363.34241	702.54474	82.15993	1088.67871	716.75983	1105.38672	1461.68372	735.5119	1110.81628	961.24518	833.39191	900.96307	1224.65625	655.38684	926.66583	1221.03796	806.22876	1312.53333	1441.95264	698.2912	1317.98022	1415.93237	740.49438	1395.37341	993.18127	726.20306	501.14014	1414.8562	784.43787	460.14026	1298.31201	703.3717	66.91757	1446.93701	729.15442	62.00998	1359.10889	774.50812	515.18463	1012.98438	783.97858	485.08051	1142.29224	710.1275	60.1183	1031.18298	746.99811	73.00878	1114.45801	825.57996	1373.26318	942.18134
